<?xml version="1.0" encoding="utf-8"?>
<!-- Generator: Adobe Illustrator 24.0.0, SVG Export Plug-In . SVG Version: 6.00 Build 0)  -->
<svg version="1.1" id="Layer_1" xmlns="http://www.w3.org/2000/svg" xmlns:xlink="http://www.w3.org/1999/xlink" x="0px" y="0px"
	 viewBox="0 0 456.2 435" style="enable-background:new 0 0 456.2 435;" xml:space="preserve">
<g>
	<path d="M69.2,387.6L24,305.3c7.8,3.2,16,4.9,24.4,4.9H204v99.4h-97.8C90.8,409.6,76.6,401.1,69.2,387.6L69.2,387.6z"/>
	<path d="M32.2,176.8l-21.5-13.7l87.8-1.8l39.1,82.5l-21.5-13.7l-38,65.8l-29.4-0.6c-9.1-0.2-18-2.9-25.6-7.8
		C-0.1,272.9-7,242.1,7.8,219L32.2,176.8z"/>
	<path d="M159.6,0l93.9,2c-6.7,5.1-12.2,11.5-16.4,18.8l-77.8,134.7l-86.1-49.7L122,21.2C129.8,7.8,144.1-0.3,159.6,0L159.6,0z"/>
	<path d="M360.6,73.3l22.6-11.8l-42.3,77l-91-7.4l22.6-11.8l-38-65.8l15.2-25.1c4.7-7.8,11.5-14.1,19.5-18.3
		c24.4-12.7,54.4-3.2,67.1,21.1L360.6,73.3z"/>
	<path d="M450.1,272.1l-48.7,80.3c-1.1-8.3-3.8-16.3-8-23.6l-77.8-134.8l86-49.7l48.9,84.7C458.2,242.3,458,258.9,450.1,272.1
		L450.1,272.1z"/>
	<path d="M286,409.6l-1.1,25.4l-45.5-75.1l51.9-75.1l-1.1,25.4h76l14.1,25.7c4.4,8,6.5,17,6.1,26.1c-1.2,27.5-24.4,48.7-51.8,47.6
		L286,409.6z"/>
</g>
</svg>
